<svg id="Layer_1" width="64px" height="64px" data-name="Layer 1" xmlns="http://www.w3.org/2000/svg" xmlns:xlink="http://www.w3.org/1999/xlink" viewBox="0 0 64 64"><defs><linearGradient id="linear-gradient" x1="8.45" y1="26.04" x2="33.73" y2="26.04" gradientUnits="userSpaceOnUse"><stop offset="0" stop-color="#7690c4"/><stop offset="1" stop-color="#4d6bac"/></linearGradient><linearGradient id="linear-gradient-2" x1="8.62" y1="32" x2="55.55" y2="32" xlink:href="#linear-gradient"/></defs><circle cx="32" cy="32" r="31.53" style="fill:#f2f2f3"/><path d="M18.32,28.22c-.41,1.85-.45,4.21,1.24,5.9a7.24,7.24,0,0,0,6.06,2,5.37,5.37,0,0,0,2.54,2.08,5,5,0,0,0,1.71.31A6.92,6.92,0,0,0,33,37.65a1.29,1.29,0,1,0-1.19-2.3,3.42,3.42,0,0,1-2.75.43,3.15,3.15,0,0,1-1.59-1.57,1.3,1.3,0,0,0-1.56-.77,4.88,4.88,0,0,1-4.55-1.15c-1.75-1.76.22-5.72.24-5.76A1.31,1.31,0,0,0,21.37,25a1.28,1.28,0,0,0-1.56-.16c-.21.12-5.24,3.11-7.94-1.24S13.7,16.3,14.22,16a1.29,1.29,0,1,0-1.4-2.17c-2.49,1.6-6.37,6-3.15,11.18C12,28.67,15.54,28.94,18.32,28.22Z" style="fill:url(#linear-gradient)"/><path d="M32.08,8.52v2.4A21.08,21.08,0,0,1,44.26,49.2V37.46A1.29,1.29,0,0,0,43,36.17H40a22.49,22.49,0,0,0,.22-3.77,3.4,3.4,0,0,0-1.14-2.79,2.89,2.89,0,0,0-.81-.46,7.16,7.16,0,0,0-2-5.62c-1.69-1.69-4-1.66-5.89-1.25.71-2.78.45-6.34-3.26-8.65-5.19-3.23-9.58.65-11.18,3.16a1.29,1.29,0,0,0,2.18,1.39c.34-.51,3.4-5,7.63-2.35s1.55,7.41,1.24,7.94a1.31,1.31,0,0,0,.16,1.56,1.29,1.29,0,0,0,1.54.26c1-.53,4.27-1.71,5.75-.23a4.85,4.85,0,0,1,1.16,4.54,1.3,1.3,0,0,0,.28,1.22,1.36,1.36,0,0,0,1.19.43.66.66,0,0,1,.43.07c.09.07.18.32.18.79a21.19,21.19,0,0,1-.17,3.27,1.16,1.16,0,0,0,0,.49H35.3A1.3,1.3,0,0,0,34,37.47V53c-.63,0-1.28.08-1.93.08A21.09,21.09,0,0,1,11,32H8.62A23.47,23.47,0,1,0,32.08,8.52Zm4.51,30.24h5.08v2.43H36.59Zm5.08,12a20.66,20.66,0,0,1-5.08,1.83V43.78h5.08Z" style="fill:url(#linear-gradient-2)"/></svg>