<svg width="20" height="20" xmlns="http://www.w3.org/2000/svg"><rect width="100%" height="100%" fill="none"/><g class="currentLayer"><g fill="#72b8eb"><circle cx="10" cy="10" r="10"/></g><g fill="#fff"><path d="M7.289643287658691,4.192093372344971 C6.233689308166504,4.192093372344971 4.9664812088012695,4.767695903778076 4.9664812088012695,6.318639278411865 v4.222813129425049 V13.484744548797607 c0,0 0,0.7743875980377197 0.7743875980377197,0.7743875980377197 v0.7743875980377197 c0,0 0,0.7743875980377197 0.7743875980377197,0.7743875980377197 s0.7743875980377197,-0.7743875980377197 0.7743875980377197,-0.7743875980377197 v-0.7743875980377197 h5.420713424682617 v0.7743875980377197 c0,0 0,0.7743875980377197 0.7743875980377197,0.7743875980377197 s0.7743875980377197,-0.7743875980377197 0.7743875980377197,-0.7743875980377197 v-0.7743875980377197 c0,0 0.7743875980377197,0 0.7743875980377197,-0.7743875980377197 V6.318639278411865 C15.033517837524414,4.734629154205322 14.076375961303711,4.192093372344971 13.020421981811523,4.192093372344971 H7.289643287658691 zM7.483241081237793,5.353674411773682 h5.033519268035889 C12.624011993408203,5.353674411773682 12.710355758666992,5.440019130706787 12.710355758666992,5.547271251678467 S12.624011993408203,5.740868091583252 12.516759872436523,5.740868091583252 h-5.033519268035889 C7.375988006591797,5.740868091583252 7.289643287658691,5.654524326324463 7.289643287658691,5.547271251678467 S7.375988006591797,5.353674411773682 7.483241081237793,5.353674411773682 zM6.515255928039551,6.515256404876709 h6.969488143920898 c0.7743875980377197,0 0.7743875980377197,0.7486779093742371 0.7743875980377197,0.7486779093742371 V9.612806797027588 c0,0 0,0.7743875980377197 -0.7743875980377197,0.7743875980377197 H6.515255928039551 C5.74086856842041,10.387194156646729 5.74086856842041,9.612806797027588 5.74086856842041,9.612806797027588 V7.28964376449585 C5.74086856842041,7.28964376449585 5.74086856842041,6.515256404876709 6.515255928039551,6.515256404876709 zM6.515255928039551,11.935969829559326 c0.42769426107406616,0 0.7743875980377197,0.34669333696365356 0.7743875980377197,0.7743875980377197 s-0.34669333696365356,0.7743875980377197 -0.7743875980377197,0.7743875980377197 s-0.7743875980377197,-0.34669333696365356 -0.7743875980377197,-0.7743875980377197 S6.08756160736084,11.935969829559326 6.515255928039551,11.935969829559326 zM13.484745025634766,11.935969829559326 c0.42769426107406616,0 0.7743875980377197,0.34669333696365356 0.7743875980377197,0.7743875980377197 s-0.34669333696365356,0.7743875980377197 -0.7743875980377197,0.7743875980377197 s-0.7743875980377197,-0.34669333696365356 -0.7743875980377197,-0.7743875980377197 S13.057048797607422,11.935969829559326 13.484745025634766,11.935969829559326 z"/></g></g></svg>