<svg height="18px" viewBox="0 0 64 64" width="18px" xmlns="http://www.w3.org/2000/svg"><g><g><path d="m30 20h-7v10h7zm-2 8h-3v-6h3z"/><path d="m18.535 22h.465v8h2v-10h-3.535l-2.297 3.445 1.664 1.11z"/><path d="m61 2h-22a1 1 0 0 0 -1 1v13h-3.382l1.282-2.553a1 1 0 0 0 -.9-1.447h-29a1 1 0 0 0 -.895 1.447l1.277 2.553h-4.382v6h5v12h27v-12h4v16h-19a1 1 0 0 0 -1 1v22a1 1 0 0 0 1 1h42a1 1 0 0 0 1-1v-58a1 1 0 0 0 -1-1zm-54 18h-3v-2h3zm25 12h-23v-14h23zm.382-16h-23.764l-1-2h25.764zm1.618 4v-2h4v2zm26 40h-40v-20h19a1 1 0 0 0 1-1v-35h20z"/><path d="m50 58a8 8 0 1 0 -8-8 8.009 8.009 0 0 0 8 8zm0-14a6 6 0 1 1 -6 6 6.006 6.006 0 0 1 6-6z"/><path d="m30 42a8 8 0 1 0 8 8 8.009 8.009 0 0 0 -8-8zm0 14a6 6 0 1 1 6-6 6.006 6.006 0 0 1 -6 6z"/><path d="m50 40a8 8 0 1 0 -8-8 8.009 8.009 0 0 0 8 8zm0-14a6 6 0 1 1 -6 6 6.006 6.006 0 0 1 6-6z"/><path d="m50 22a8 8 0 1 0 -8-8 8.009 8.009 0 0 0 8 8zm0-14a6 6 0 1 1 -6 6 6.006 6.006 0 0 1 6-6z"/><path d="m15 28h2v2h-2z"/><path d="m11 28h2v2h-2z"/><path d="m22 42h2v2h-2z"/><path d="m22 56h2v2h-2z"/><path d="m42 6h2v2h-2z"/><path d="m56 6h2v2h-2z"/><path d="m56 56h2v2h-2z"/><path d="m33 49h-3.586l1.293-1.293a1 1 0 0 0 -1.414-1.414l-3 3a1 1 0 0 0 0 1.414l3 3a1 1 0 0 0 1.414-1.414l-1.293-1.293h3.586a1 1 0 0 0 0-2z"/><path d="m47.707 50.707 1.293-1.293v3.586a1 1 0 0 0 2 0v-3.586l1.293 1.293a1 1 0 0 0 1.414-1.414l-3-3a1 1 0 0 0 -1.414 0l-3 3a1 1 0 0 0 1.414 1.414z"/></g></g></svg>