<svg height="18px" viewBox="0 0 512 512" width="18px" xmlns="http://www.w3.org/2000/svg"><g><g><path d="m459.5 297.167c4.143 0 7.5-3.357 7.5-7.5v-24.995c0-9.649-7.851-17.5-17.5-17.5h-198.422v-.4l38.445-56.876c1.403-2.074 2.146-4.496 2.146-7.003v-13.974c0-6.893-5.607-12.5-12.5-12.5h-28.091v-31.421l38.445-56.877c1.403-2.074 2.146-4.496 2.146-7.002v-13.974c0-6.893-5.607-12.5-12.5-12.5h-28.091v-22.145c0-6.893-5.607-12.5-12.5-12.5h-140.486c-6.893 0-12.5 5.607-12.5 12.5v22.145h-28.092c-6.893 0-12.5 5.607-12.5 12.5v13.974c0 2.503.74 4.922 2.144 7l38.448 56.88v31.421h-28.092c-6.893 0-12.5 5.607-12.5 12.5v13.974c0 2.503.74 4.923 2.144 7.001l38.448 56.879v31.422h-28.092c-6.893 0-12.5 5.607-12.5 12.5v13.974c0 2.503.74 4.922 2.144 7l38.448 56.88v31.948c0 6.893 5.607 12.5 12.5 12.5h34.031v86.502c0 6.893 5.607 12.5 12.5 12.5h47.423c6.893 0 12.5-5.607 12.5-12.5v-29.127h67.454v26.627h-37.795c-4.143 0-7.5 3.357-7.5 7.5s3.357 7.5 7.5 7.5h154.935c4.143 0 7.5-3.357 7.5-7.5s-3.357-7.5-7.5-7.5h-37.795v-26.627h98.155c9.649 0 17.5-7.851 17.5-17.5v-128.123c0-4.143-3.357-7.5-7.5-7.5s-7.5 3.357-7.5 7.5v96.25h-155.5c-4.143 0-7.5 3.357-7.5 7.5s3.357 7.5 7.5 7.5h155.5v16.873c0 1.379-1.121 2.5-2.5 2.5h-244.954v-19.373h55.954c4.143 0 7.5-3.357 7.5-7.5s-3.357-7.5-7.5-7.5h-55.954v-8.004h34.032c6.893 0 12.5-5.607 12.5-12.5v-31.949l38.445-56.877c1.403-2.074 2.146-4.496 2.146-7.002v-13.974c0-6.893-5.607-12.5-12.5-12.5h-28.091v-16.022h198.422c1.379 0 2.5 1.121 2.5 2.5v24.995c0 4.143 3.357 7.5 7.5 7.5zm-208.422-247.522h25.591v10.708l-25.591 37.859zm0 121.774h25.591v10.709l-25.591 37.858zm-165.486 170.343-25.592-37.86v-10.708h25.592zm0-121.775-25.592-37.859v-10.709h25.592zm0-121.775-25.592-37.859v-10.708h25.592zm201.408 372.161h49.345v26.627h-49.345zm-97.454 26.627h-42.423v-84.004h42.423zm46.532-99.004h-135.486v-382.996h135.486zm40.591-104.802v10.708l-25.591 37.859v-48.567z"/><path d="m360.885 225.308c2.386 4.271 6.699 6.822 11.538 6.822 4.84 0 9.152-2.55 11.539-6.825l38.369-68.836c6.265-11.294 8.698-24.17 7.039-37.237-3.375-26.571-24.614-47.965-50.504-50.869-2.145-.24-4.313-.362-6.444-.362h-.003c-15.394 0-29.852 6.187-40.711 17.42-10.794 11.166-16.738 25.993-16.738 41.751 0 10.268 2.606 20.395 7.546 29.3zm-18.392-129.462c8.007-8.284 18.635-12.846 29.926-12.846h.003c1.576 0 3.183.091 4.773.269 19.096 2.143 34.78 18.063 37.294 37.854 1.255 9.88-.569 19.586-5.268 28.058l-36.799 66.019-36.798-66.017c-3.699-6.671-5.655-14.282-5.655-22.011.001-11.848 4.448-22.973 12.524-31.326z"/><path d="m372.423 151.663c14.055 0 25.489-11.712 25.489-26.108s-11.435-26.108-25.489-26.108-25.489 11.712-25.489 26.108 11.434 26.108 25.489 26.108zm0-37.217c5.784 0 10.489 4.983 10.489 11.108s-4.705 11.108-10.489 11.108-10.489-4.983-10.489-11.108 4.705-11.108 10.489-11.108z"/><path d="m336.923 351c-6.893 0-12.5 5.607-12.5 12.5v22c0 6.893 5.607 12.5 12.5 12.5h71c6.893 0 12.5-5.607 12.5-12.5v-22c0-6.893-5.607-12.5-12.5-12.5h-28v-13.949c12.925-3.339 22.5-15.098 22.5-29.051 0-16.542-13.458-30-30-30s-30 13.458-30 30c0 13.953 9.575 25.712 22.5 29.051v13.949zm20.5-43c0-8.271 6.729-15 15-15s15 6.729 15 15-6.729 15-15 15-15-6.729-15-15zm48 58v17h-66v-17z"/><path d="m168.335 131.233c7.171 0 14.065-1.561 20.49-4.637 3.736-1.789 5.314-6.268 3.525-10.004-1.79-3.737-6.27-5.314-10.004-3.525-4.387 2.101-9.101 3.166-14.012 3.166-17.921 0-32.5-14.579-32.5-32.5s14.579-32.5 32.5-32.5 32.5 14.579 32.5 32.5c0 2.12-.204 4.236-.607 6.289-.798 4.065 1.85 8.007 5.914 8.805 4.072.799 8.007-1.851 8.805-5.914.59-3.004.889-6.092.889-9.18 0-26.191-21.309-47.5-47.5-47.5s-47.5 21.309-47.5 47.5 21.309 47.5 47.5 47.5z"/><path d="m168.335 253.008c26.191 0 47.5-21.309 47.5-47.5s-21.309-47.5-47.5-47.5-47.5 21.309-47.5 47.5 21.309 47.5 47.5 47.5zm0-80c17.921 0 32.5 14.579 32.5 32.5s-14.579 32.5-32.5 32.5-32.5-14.579-32.5-32.5 14.579-32.5 32.5-32.5z"/><path d="m168.335 374.783c26.191 0 47.5-21.309 47.5-47.5s-21.309-47.5-47.5-47.5-47.5 21.309-47.5 47.5 21.309 47.5 47.5 47.5zm0-80c17.921 0 32.5 14.579 32.5 32.5s-14.579 32.5-32.5 32.5-32.5-14.579-32.5-32.5 14.579-32.5 32.5-32.5z"/></g></g></svg>