<svg xmlns="http://www.w3.org/2000/svg" x="0px" y="0px" viewBox="519.6 98.1 876 882" width="64px" height="64px" enable-background="new 519.6 98.1 876 882"><g><g><path fill="red" d="M1169.6,880.6V632.9c0-12.3-10-22.2-22.2-22.2h-51.2c0.6-3,3.8-21.4,3.8-64.7c0-26.4-10.6-40.6-19.5-47.9 c-4.5-3.7-9.3-6.3-14-8c1.5-25.1-2.7-64.1-35.2-96.5c-29-29-69.5-28.4-101.3-21.4c12.3-47.8,7.8-109-55.9-148.6 c-89.2-55.4-164.7,11.2-192.1,54.2c-6.6,10.3-3.6,24,6.7,30.6c10.3,6.7,24.1,3.7,30.7-6.6c5.8-8.9,58.4-85.6,131.2-40.4 c72.8,45.1,26.6,127.2,21.2,136.4c-5.2,8.5-4,19.5,2.8,26.7c6.8,7.3,17.7,9.1,26.5,4.5c17.5-9.1,73.3-29.4,98.8-4 c32.4,32.4,20.4,76.3,19.9,78c-2.2,7.3-0.2,15.2,4.8,20.9c5,5.8,12.8,8.5,20.4,7.4c1.8-0.2,5.7-0.1,7.4,1.3 c1.5,1.2,3.2,5.5,3.2,13.5c0,40.1-3,56.2-3,56.2c-0.6,2.9-0.5,5.8,0,8.5h-36.9c-12.3,0-22.2,10-22.2,22.2v283.7 M1125.1,655.2 v41.7h-87.3v-41.7H1125.1z M1037.8,741.4h87.3v133l-87.3,36V741.4z"/></g><g><path fill="red" d="M723.8,474.2c-7,31.8-7.6,72.3,21.4,101.3c35.9,36,79.9,37.3,104.1,34.5c8.1,12.1,22,27.6,43.7,35.7 c9.4,3.5,19.2,5.3,29.4,5.3c17.1,0,35.3-5,54.3-14.9c10.9-5.7,15.1-19.1,9.5-30c-5.7-10.9-19.1-15.1-30-9.5 c-18.5,9.7-34.5,12.2-47.3,7.5c-18.6-6.8-27.2-27-27.2-27c-4.2-10.7-15.9-16.3-26.9-13.2c-1.8,0.5-45.7,12.5-78.1-19.9 c-30.1-30.1,3.7-98.2,4-98.8c4.6-8.9,2.8-19.7-4.5-26.5c-7.3-6.8-18.2-8-26.7-2.8c-3.6,2.2-90.1,53.4-136.4-21.2 C568,322,644.4,269.4,653.4,263.5c10.3-6.6,13.3-20.4,6.7-30.7c-6.6-10.3-20.4-13.4-30.7-6.7c-42.9,27.5-109.5,103-54.2,192.1 C614.8,481.9,676.1,486.5,723.8,474.2z"/></g></g><g><path fill="red" d="M960.4,942.4c-222.4,0-403.3-180.9-403.3-403.3h41.2c0,199.7,162.4,362.1,362.1,362.1 c199.7,0,362.1-162.4,362.1-362.1c0-199.7-162.4-362.1-362.1-362.1v-41.2c222.4,0,403.3,180.9,403.3,403.3 C1363.7,761.5,1182.8,942.4,960.4,942.4z"/></g></svg>