<svg id="Layer_1" width="64px" height="64px" data-name="Layer 1" xmlns="http://www.w3.org/2000/svg" viewBox="0 0 50 50"><defs><style>.cls-1{fill:#4d6aab}.cls-2{fill:#82a0cf}.cls-3{fill:#fff}</style></defs><path fill="#fff" class="cls-3" d="M31.46,17.4H27l2.31-3.48H28.17L25.88,17.4H22.74l2.31-3.48H23.88l-2.3,3.48h-3A2.55,2.55,0,0,0,16,20V33.17a.49.49,0,0,0,.49.49h1.2v.94a1.48,1.48,0,1,0,3,0v-.94h8.72v.94a1.48,1.48,0,1,0,3,0v-.94h1.2a.49.49,0,0,0,.49-.49V20A2.55,2.55,0,0,0,31.46,17.4ZM17,20a1.57,1.57,0,0,1,1.57-1.57H31.46A1.57,1.57,0,0,1,33,20v.56H17ZM33,27.46h-.67a2.31,2.31,0,0,0-4.56,0H17v-6H33Zm-1.67,0H28.8a1.34,1.34,0,0,1,2.56,0ZM19.67,34.6a.51.51,0,0,1-1,0v-.94h1Zm11.68,0a.51.51,0,1,1-1,0v-.94h1Zm.48-1.91H17V28.43H33v4.26Z"/><path fill="#fff" class="cls-3" d="M19.23,29a1.44,1.44,0,1,0,1.43,1.43A1.43,1.43,0,0,0,19.23,29Zm0,1.9a.47.47,0,1,1,.46-.47A.46.46,0,0,1,19.23,30.88Z"/><path fill="#fff" class="cls-3" d="M30.77,29a1.44,1.44,0,1,0,1.43,1.43A1.43,1.43,0,0,0,30.77,29Zm0,1.9a.47.47,0,1,1,.46-.47A.46.46,0,0,1,30.77,30.88Z"/></svg>