<svg id="Layer_1" width="64px" height="64px" data-name="Layer 1" xmlns="http://www.w3.org/2000/svg" viewBox="0 0 50 50"><defs><style>.cls-1{fill:#784390}.cls-2{fill:#9472ab}.cls-3{fill:#fff}</style></defs><path fill="#fff" class="cls-3" d="M33.62,29.65,31.84,18.59a2.48,2.48,0,0,0-2.46-2.11h-.57l-.18-.27A2.66,2.66,0,0,0,26.42,15H23.58a2.66,2.66,0,0,0-2.21,1.18l-.18.27h-.57a2.48,2.48,0,0,0-2.46,2.11L16.38,29.65a2.48,2.48,0,0,0,.56,2,2.33,2.33,0,0,0,.74.59v1.24a1.48,1.48,0,1,0,3,0v-1h8.72v1a1.48,1.48,0,1,0,3,0V32.25a2.33,2.33,0,0,0,.74-.59A2.48,2.48,0,0,0,33.62,29.65ZM23.58,16h2.84a1.7,1.7,0,0,1,1.18.48H22.4A1.7,1.7,0,0,1,23.58,16Zm-3,1.46h8.76a1.52,1.52,0,0,1,1.5,1.28l.11.66H19l.11-.66A1.52,1.52,0,0,1,20.62,17.46Zm-1.77,2.91h12.3l.8,5a2.31,2.31,0,0,0-4.15,1H17.89Zm12.51,6H28.8a1.34,1.34,0,0,1,2.56,0ZM19.67,33.49a.51.51,0,1,1-1,0v-1h1Zm11.68-1v1a.51.51,0,0,1-1,0v-1h1Zm1-1.51a1.49,1.49,0,0,1-1.16.54H18.84a1.52,1.52,0,0,1-1.5-1.77l.4-2.48H32.26l.4,2.48A1.49,1.49,0,0,1,32.32,31Z"/><path fill="#fff" class="cls-3" d="M19.23,27.87a1.43,1.43,0,1,0,1.43,1.43A1.43,1.43,0,0,0,19.23,27.87Zm0,1.89a.46.46,0,1,1,.46-.46A.45.45,0,0,1,19.23,29.76Z"/><path fill="#fff" class="cls-3" d="M30.77,27.87A1.43,1.43,0,1,0,32.2,29.3,1.43,1.43,0,0,0,30.77,27.87Zm0,1.89a.46.46,0,1,1,.46-.46A.45.45,0,0,1,30.77,29.76Z"/></svg>