<svg xmlns="http://www.w3.org/2000/svg" x="0px" y="0px" viewBox="0 0 1920 1080" width="32px" height="32px" enable-background="new 0 0 1920 1080"><circle fill="#F2F2F2" cx="996.5" cy="540" r="540"/><g><linearGradient id="a" gradientUnits="userSpaceOnUse" x1="503.8998" y1="120.6085" x2="781.2839" y2="654.8297" gradientTransform="matrix(1.4085 0 0 1.4085 184.2831 -57.8367)"><stop offset="0" style="stop-color:#6D99FF"/><stop offset="1" style="stop-color:#3C6CDE"/></linearGradient><path fill="url(#a)" d="M996,221.7c-47.9,0-86.8,38.9-86.8,86.8s38.9,86.8,86.8,86.8c47.9,0,86.8-38.9,86.8-86.8 S1044,221.7,996,221.7z M996,363.4c-30.3,0-54.9-24.6-54.9-54.9c0-30.3,24.6-54.9,54.9-54.9s54.9,24.6,54.9,54.9 C1050.9,338.9,1026.4,363.4,996,363.4z"/><linearGradient id="b" gradientUnits="userSpaceOnUse" x1="436.6649" y1="155.519" x2="714.049" y2="689.7402" gradientTransform="matrix(1.4085 0 0 1.4085 184.2831 -57.8367)"><stop offset="0" style="stop-color:#6D99FF"/><stop offset="1" style="stop-color:#3C6CDE"/></linearGradient><path fill="url(#b)" d="M996,453.2c-47.9,0-86.8,38.9-86.8,86.8s38.9,86.8,86.8,86.8c47.9,0,86.8-38.9,86.8-86.8 S1044,453.2,996,453.2z M996,597.5c-31.8,0-57.5-25.8-57.5-57.5s25.8-57.5,57.5-57.5c31.8,0,57.5,25.8,57.5,57.5 S1027.8,597.5,996,597.5z"/><linearGradient id="c" gradientUnits="userSpaceOnUse" x1="369.4883" y1="190.3991" x2="646.8723" y2="724.6205" gradientTransform="matrix(1.4085 0 0 1.4085 184.2831 -57.8367)"><stop offset="0" style="stop-color:#6D99FF"/><stop offset="1" style="stop-color:#3C6CDE"/></linearGradient><path fill="url(#c)" d="M996,684.6c-47.9,0-86.8,38.9-86.8,86.8s38.9,86.8,86.8,86.8c47.9,0,86.8-38.9,86.8-86.8 C1082.9,723.5,1044,684.6,996,684.6z M996,826.8c-30.6,0-55.4-24.8-55.4-55.4s24.8-55.4,55.4-55.4c30.6,0,55.4,24.8,55.4,55.4 C1051.3,802.1,1026.5,826.8,996,826.8z"/><linearGradient id="d" gradientUnits="userSpaceOnUse" x1="455.8627" y1="145.5509" x2="733.2467" y2="679.7723" gradientTransform="matrix(1.4085 0 0 1.4085 184.2831 -57.8367)"><stop offset="0" style="stop-color:#6D99FF"/><stop offset="1" style="stop-color:#3C6CDE"/></linearGradient><path fill="url(#d)" d="M1362.9,490c9.4-7.7,12.8-20.7,8.7-32.1c-4.1-11.4-15.1-19.2-27.2-19.2h-145.8v-28.9L1362.9,273 c9.4-7.7,12.8-20.7,8.7-32.1c-4.1-11.4-15.1-19.2-27.2-19.2h-145.8c0-47.9-38.9-86.8-86.8-86.8H880.2c-47.9,0-86.8,38.9-86.8,86.8 H648.6c-12.3,0-23.1,7.6-27.2,19.2c-4.2,11.4-0.7,24.4,8.7,32.1L793.4,409v29.9H648.6c-12.3,0-23.1,7.6-27.2,19.2 c-4.2,11.4-0.7,24.4,8.7,32.1l163.2,135.8v44.2H648.6c-12.3,0-23.1,7.6-27.2,19.2c-4.2,11.4-0.7,24.4,8.7,32.1l163.2,136.1v0.8 c0,47.9,38.9,86.8,86.8,86.8h231.5c47.9,0,86.8-38.9,86.8-86.8l164.2-136.9c9.4-7.7,12.8-20.7,8.7-32.1 c-4.1-11.4-15.1-19.2-27.2-19.2h-145.6v-43.4L1362.9,490z M1199.6,464.4h148.9l-148.9,124.4V464.4z M1199.6,247.3h148.9 l-148.9,124.4V247.3z M644.4,247.3h148.9v124.4L644.4,247.3z M644.4,464.4h148.9v124.4L644.4,464.4z M644.4,695.9h148.9v124.4 L644.4,695.9z M1140.8,858.3c0,15.9-13,28.9-28.9,28.9H880.2c-15.9,0-28.9-13-28.9-28.9v-14.5V699.2v-86.8V467.6v-72.4V250.6v-28.9 c0-15.9,13-28.9,28.9-28.9h231.5c15.9,0,28.9,13,28.9,28.9L1140.8,858.3L1140.8,858.3z M1199.6,695.9h148.9l-148.9,124.4V695.9z"/></g><path d="M-178.8-81.1"/></svg>