<svg xmlns="http://www.w3.org/2000/svg" x="0px" y="0px" viewBox="0 0 1920 1080" width="32px" height="32px" enable-background="new 0 0 1920 1080"><linearGradient id="a" gradientUnits="userSpaceOnUse" x1="167.3589" y1="655.536" x2="934.159" y2="655.536" gradientTransform="matrix(1.4085 0 0 -1.4085 184.2831 1463.2902)"><stop offset="0" style="stop-color:#6D99FF"/><stop offset="1" style="stop-color:#3C6CDE"/></linearGradient><circle fill="url(#a)" cx="960" cy="540" r="540"/><g><path fill="#F2F2F2" d="M959.4,221.7c-47.9,0-86.8,38.9-86.8,86.8s38.9,86.8,86.8,86.8s86.8-38.9,86.8-86.8 S1007.5,221.7,959.4,221.7z M959.4,363.4c-30.3,0-54.9-24.6-54.9-54.9c0-30.3,24.6-54.9,54.9-54.9c30.3,0,54.9,24.6,54.9,54.9 C1014.4,338.9,989.9,363.4,959.4,363.4z"/><path fill="#F2F2F2" d="M959.4,453.2c-47.9,0-86.8,38.9-86.8,86.8s38.9,86.8,86.8,86.8s86.8-38.9,86.8-86.8 S1007.5,453.2,959.4,453.2z M959.4,597.5c-31.8,0-57.5-25.8-57.5-57.5c0-31.7,25.8-57.5,57.5-57.5c31.8,0,57.5,25.8,57.5,57.5 C1016.9,571.7,991.3,597.5,959.4,597.5z"/><path fill="#F2F2F2" d="M959.4,684.6c-47.9,0-86.8,38.9-86.8,86.8s38.9,86.8,86.8,86.8s86.8-38.9,86.8-86.8 C1046.3,723.5,1007.5,684.6,959.4,684.6z M959.4,826.8c-30.6,0-55.4-24.8-55.4-55.4c0-30.6,24.8-55.4,55.4-55.4 c30.6,0,55.4,24.8,55.4,55.4C1014.8,802.1,990,826.8,959.4,826.8z"/><path fill="#F2F2F2" d="M1326.3,490c9.4-7.7,12.8-20.7,8.7-32.1c-4.1-11.4-15.1-19.2-27.2-19.2h-145.8v-28.9L1326.3,273 c9.4-7.7,12.8-20.7,8.7-32.1c-4.1-11.4-15.1-19.2-27.2-19.2h-145.8c0-47.9-38.9-86.8-86.8-86.8H843.7c-47.9,0-86.8,38.9-86.8,86.8 H612.1c-12.3,0-23.1,7.6-27.2,19.2c-4.2,11.4-0.7,24.4,8.7,32.1L756.9,409v29.9H612.1c-12.3,0-23.1,7.6-27.2,19.2 c-4.2,11.4-0.7,24.4,8.7,32.1l163.2,135.8v44.2H612.1c-12.3,0-23.1,7.6-27.2,19.2c-4.2,11.4-0.7,24.4,8.7,32.1l163.2,136.1v0.8 c0,47.9,38.9,86.8,86.8,86.8h231.5c47.9,0,86.8-38.9,86.8-86.8l164.2-136.9c9.4-7.7,12.8-20.7,8.7-32.1 c-4.1-11.4-15.1-19.2-27.2-19.2h-145.6v-43.4L1326.3,490z M1163.1,464.4H1312l-148.9,124.4V464.4z M1163.1,247.3H1312l-148.9,124.4 V247.3z M607.9,247.3h148.9v124.4L607.9,247.3z M607.9,464.4h148.9v124.4L607.9,464.4z M607.9,695.9h148.9v124.4L607.9,695.9z M1104.2,858.3c0,15.9-13,28.9-28.9,28.9H843.7c-15.9,0-28.9-13-28.9-28.9v-14.5V699.2v-86.8V467.6v-72.4V250.6v-28.9 c0-15.9,13-28.9,28.9-28.9h231.5c15.9,0,28.9,13,28.9,28.9L1104.2,858.3L1104.2,858.3z M1163.1,695.9H1312l-148.9,124.4V695.9z"/></g><path d="M361.7,60.5"/></svg>