<svg id="Layer_1" width="64px" height="64px" data-name="Layer 1" xmlns="http://www.w3.org/2000/svg" viewBox="0 0 50 50"><defs><style>.cls-1{fill:#eea54b}.cls-2{fill:#f7c547}.cls-3{fill:#fff}</style></defs><path fill="#fff" class="cls-3" d="M31.5,20.24a2.3,2.3,0,0,0-2.13-2.31h-3.2l1.48-1.47a.49.49,0,0,0,0-.69l-2.31-2.3a.5.5,0,0,0-.68,0l-2.31,2.3a.49.49,0,0,0,0,.69l1.48,1.47h-3.2a2.29,2.29,0,0,0-2.13,2.3L17.38,33.72a.46.46,0,0,0,.12.37.48.48,0,0,0,.36.15h1.29v1.3a1.13,1.13,0,0,0,2.26,0v-1.3h7.18v1.3a1.13,1.13,0,0,0,2.26,0v-1.3h1.29a.48.48,0,0,0,.36-.15.46.46,0,0,0,.12-.37ZM25,14.5l1.62,1.61L25,17.73l-1.62-1.62ZM31.18,28H18.82l.5-6H30.68ZM20.63,18.9h8.74a1.34,1.34,0,0,1,1.16,1.41l.07.79H19.4l.07-.81A1.33,1.33,0,0,1,20.63,18.9Zm-.19,16.64a.16.16,0,0,1-.16.16.16.16,0,0,1-.15-.16v-1.3h.31Zm9.43,0a.16.16,0,0,1-.15.16.16.16,0,0,1-.16-.16v-1.3h.31Zm.49-2.27h-12L18.74,29H31.26l.35,4.25Z"/><path fill="#fff" class="cls-3" d="M20.44,29.57A1.44,1.44,0,1,0,21.88,31,1.43,1.43,0,0,0,20.44,29.57Zm0,1.89A.46.46,0,0,1,20,31a.47.47,0,1,1,.46.46Z"/><path fill="#fff" class="cls-3" d="M29.56,29.57A1.44,1.44,0,1,0,31,31,1.43,1.43,0,0,0,29.56,29.57Zm0,1.89a.46.46,0,0,1-.47-.46A.47.47,0,0,1,30,31,.46.46,0,0,1,29.56,31.46Z"/></svg>