<svg id="Layer_1" width="64px" height="64px" data-name="Layer 1" xmlns="http://www.w3.org/2000/svg" viewBox="0 0 50 50"><defs><style>.cls-1{fill:#355a36}.cls-2{fill:#4b8a4d}.cls-3{fill:#fff}</style></defs><path class="cls-3" d="M31.46,15.66H18.54A2.55,2.55,0,0,0,16,18.2V31.43a.48.48,0,0,0,.49.48h1.2v.95a1.48,1.48,0,0,0,3,0v-.95h8.72v.95a1.48,1.48,0,0,0,3,0v-.95h1.2a.48.48,0,0,0,.49-.48V18.2A2.55,2.55,0,0,0,31.46,15.66ZM17,18.2a1.57,1.57,0,0,1,1.57-1.57H31.46A1.57,1.57,0,0,1,33,18.2v.57H17ZM33,25.72h-.67a2.31,2.31,0,0,0-4.56,0H17v-6H33Zm-1.67,0H28.8a1.34,1.34,0,0,1,2.56,0ZM19.67,32.86a.51.51,0,0,1-1,0v-.95h1Zm11.68,0a.51.51,0,0,1-1,0v-.95h1Zm.48-1.92H17V26.69H33v4.25Z"/><path class="cls-3" d="M19.23,27.24a1.44,1.44,0,1,0,1.43,1.43A1.43,1.43,0,0,0,19.23,27.24Zm0,1.89a.45.45,0,0,1-.46-.46.46.46,0,0,1,.92,0A.45.45,0,0,1,19.23,29.13Z"/><path class="cls-3" d="M30.77,27.24a1.44,1.44,0,1,0,1.43,1.43A1.43,1.43,0,0,0,30.77,27.24Zm0,1.89a.45.45,0,0,1-.46-.46.46.46,0,0,1,.92,0A.45.45,0,0,1,30.77,29.13Z"/></svg>