<svg xmlns="http://www.w3.org/2000/svg" x="0px" y="0px" viewBox="0 0 1920 1080" width="64px" height="64px" enable-background="new 0 0 1920 1080"><linearGradient id="a" gradientUnits="userSpaceOnUse" x1="167.3531" y1="424.4869" x2="934.1263" y2="424.4869" gradientTransform="matrix(1.4085 0 0 1.4085 184.2831 -57.8898)"><stop offset="0" style="stop-color:#6D99FF"/><stop offset="1" style="stop-color:#3C6CDE"/></linearGradient><circle fill="url(#a)" cx="960" cy="540" r="540"/><path d="M361.7,60.5"/><path fill="#F2F2F2" d="M1007.6,668.2c-11.8,0-11.8-17.3,0-17.3h62.9V588c0-11.8,17.3-11.8,17.3,0v71.6c0,4.7-3.9,8.7-8.7,8.7	H1007.6z"/><path fill="#F2F2F2" d="M959.6,503.8L959.6,503.8c4.7,0,8.7,3.9,8.7,8.7v18.9h18.9c4.7,0,8.7,3.9,8.7,8.7l0,0c0,4.7-3.9,8.7-8.7,8.7	h-18.9v18.9c0,4.7-3.9,8.7-8.7,8.7l0,0c-4.7,0-8.7-3.9-8.7-8.7v-18.9h-18.9c-4.7,0-8.7-3.9-8.7-8.7l0,0c0-4.7,3.9-8.7,8.7-8.7H951	v-18.9C951,507.8,954.9,503.8,959.6,503.8z"/><path fill="#F2F2F2" d="M1007.6,412.6c-11.8,0-11.8,17.3,0,17.3h62.9v62.9c0,11,17.3,11,17.3,0v-71.6c0-4.7-3.9-8.7-8.7-8.7H1007.6z"/><path fill="#F2F2F2" d="M912.4,412.6c11,0,11,17.3,0,17.3h-62.9v62.9c0,11-17.3,11-17.3,0v-71.6c0-4.7,3.9-8.7,8.7-8.7H912.4z"/><path fill="#F2F2F2" d="M912.4,668.2c11,0,11-17.3,0-17.3h-62.9V588c0-11.8-17.3-11.8-17.3,0v71.6c0,4.7,3.9,8.7,8.7,8.7H912.4z"/><path fill="#F2F2F2" d="M1205.8,223.4H713.4c-38.5,0-70,31.5-70,70v492.4c0,39.3,31.5,70.8,70,70.8h492.4	c39.3,0,70.8-31.5,70.8-70.8V293.4C1276.6,254.9,1245.1,223.4,1205.8,223.4z M959.6,345.3c171.5,0,257.2,204.5,142.4,327.2	c-77.1,83.4-211.6,81.8-287.1-3.1C704.8,545.9,790.5,345.3,959.6,345.3z M730.7,275.7c24.4,0,37.8,29.1,22.8,48	c-11,14.9-33,15.7-45.6,1.6C691.4,306.4,704.8,275.7,730.7,275.7z M1249.8,785.8c0,24.4-19.7,44-44,44H713.4	c-23.6,0-43.3-19.7-43.3-44V548.3h62.9c1.6,54.3,22.8,103.8,56.6,142.4c88.9,99.9,246.2,101.5,337.4,3.1	c35.4-38.5,58.2-89.7,59.8-145.5h62.9V785.8z"/></svg>