<svg width="32px" height="32px" xmlns="http://www.w3.org/2000/svg" x="0px" y="0px" viewBox="0 0 1920 1080" enable-background="new 0 0 1920 1080"><linearGradient id="a" gradientUnits="userSpaceOnUse" x1="612.4186" y1="81.0301" x2="1389.3798" y2="1009.4837"><stop offset="0" style="stop-color:#6D99FF"/><stop offset="1" style="stop-color:#3C6CDE"/></linearGradient><circle fill="url(#a)" cx="996.5" cy="540" r="525.9"/><path d="M-178.8-81.1"/><g><path fill="#F2F2F2" d="M633.4,444.7c-13.3,13.3-34.2,13.3-47.5,0c-13.3-13.3-13.3-34.2,0-47.5C699.9,285,848.2,228,996.5,228 s296.6,57,410.6,169.2c13.3,13.3,13.3,34.2,0,47.5c-13.3,13.3-34.2,13.3-47.5,0C1258.8,344,1127.7,294.5,996.5,294.5 S732.3,344,633.4,444.7z"/><path fill="#F2F2F2" d="M633.4,444.7c-13.3,13.3-34.2,13.3-47.5,0c-13.3-13.3-13.3-34.2,0-47.5C699.9,285,848.2,228,996.5,228 s296.6,57,410.6,169.2c13.3,13.3,13.3,34.2,0,47.5c-13.3,13.3-34.2,13.3-47.5,0C1258.8,344,1127.7,294.5,996.5,294.5 S732.3,344,633.4,444.7z"/><path fill="#F2F2F2" d="M749.4,560.7c-13.3,13.3-34.2,13.3-47.5,0c-11.4-13.3-11.4-34.2,0-45.6c81.7-81.7,188.2-123.6,294.7-123.6 s212.9,41.8,294.7,123.6c11.4,11.4,11.4,32.3,0,45.6c-13.3,13.3-34.2,13.3-47.5,0C1175.2,492.2,1085.8,458,996.5,458 S817.8,492.2,749.4,560.7z"/><path fill="#F2F2F2" d="M749.4,560.7c-13.3,13.3-34.2,13.3-47.5,0c-11.4-13.3-11.4-34.2,0-45.6c81.7-81.7,188.2-123.6,294.7-123.6 s212.9,41.8,294.7,123.6c11.4,11.4,11.4,32.3,0,45.6c-13.3,13.3-34.2,13.3-47.5,0C1175.2,492.2,1085.8,458,996.5,458 S817.8,492.2,749.4,560.7z"/><path fill="#F2F2F2" d="M865.3,676.6c-13.3,13.3-34.2,13.3-47.5,0c-11.4-13.3-11.4-34.2,0-45.6c49.4-49.4,114.1-74.1,178.7-74.1 s129.3,24.7,176.8,74.1c13.3,11.4,13.3,32.3,0,45.6c-11.4,13.3-32.3,13.3-45.6,0c-36.1-36.1-83.6-53.2-131.2-53.2 S901.4,640.5,865.3,676.6z"/><path fill="#F2F2F2" d="M865.3,676.6c-13.3,13.3-34.2,13.3-47.5,0c-11.4-13.3-11.4-34.2,0-45.6c49.4-49.4,114.1-74.1,178.7-74.1 s129.3,24.7,176.8,74.1c13.3,11.4,13.3,32.3,0,45.6c-11.4,13.3-32.3,13.3-45.6,0c-36.1-36.1-83.6-53.2-131.2-53.2 S901.4,640.5,865.3,676.6z"/><path fill="#F2F2F2" d="M1049.7,745.1c28.5,28.5,28.5,76,0,104.6c-30.4,28.5-76,28.5-106.5,0c-28.5-28.5-28.5-76,0-104.6 C973.7,716.6,1019.3,716.6,1049.7,745.1z"/></g></svg>